HIERARCHY
ROOT joint_Root
{
	OFFSET 0.0 0.0 0.0
	CHANNELS 6 Xposition Yposition Zposition Zrotation Xrotation Yrotation 
	JOINT Hips
	{
		OFFSET 4.5925 91.4895 -427.239
		CHANNELS 6 Xposition Yposition Zposition Zrotation Xrotation Yrotation 
		JOINT Spine
		{
			OFFSET 15.7357 0.0 0.0
			CHANNELS 6 Xposition Yposition Zposition Zrotation Xrotation Yrotation 
			JOINT Chest
			{
				OFFSET 8.98455 -0.406207 0.0
				CHANNELS 6 Xposition Yposition Zposition Zrotation Xrotation Yrotation 
				JOINT Neck
				{
					OFFSET 16.3773 0.0 0.0
					CHANNELS 6 Xposition Yposition Zposition Zrotation Xrotation Yrotation 
					JOINT Head
					{
						OFFSET 6.45672 0.0 0.0
						CHANNELS 6 Xposition Yposition Zposition Zrotation Xrotation Yrotation 
						End Site
						{
							OFFSET 0.0 0.0 0.0
						}
					}
				}
				JOINT Shoulder_L
				{
					OFFSET 12.9942 -0.242716 4.98039
					CHANNELS 6 Xposition Yposition Zposition Zrotation Xrotation Yrotation 
					JOINT UpperArm_L
					{
						OFFSET 5.34809 0.0 0.0
						CHANNELS 6 Xposition Yposition Zposition Zrotation Xrotation Yrotation 
						JOINT LowerArm_L
						{
							OFFSET 24.3286 1.87007e-05 0.0
							CHANNELS 6 Xposition Yposition Zposition Zrotation Xrotation Yrotation 
							JOINT Hand_L
							{
								OFFSET 22.2916 0.0 0.0
								CHANNELS 6 Xposition Yposition Zposition Zrotation Xrotation Yrotation 
								End Site
								{
									OFFSET 0.0 0.0 0.0
								}
							}
						}
					}
				}
				JOINT Shoulder_R
				{
					OFFSET 12.9945 -0.242716 -4.98039
					CHANNELS 6 Xposition Yposition Zposition Zrotation Xrotation Yrotation 
					JOINT UpperArm_R
					{
						OFFSET -5.34813 0.0 0.0
						CHANNELS 6 Xposition Yposition Zposition Zrotation Xrotation Yrotation 
						JOINT LowerArm_R
						{
							OFFSET -24.3289 0.000322201 0.0
							CHANNELS 6 Xposition Yposition Zposition Zrotation Xrotation Yrotation 
							JOINT Hand_R
							{
								OFFSET -22.2915 -0.000108084 0.0
								CHANNELS 6 Xposition Yposition Zposition Zrotation Xrotation Yrotation 
								End Site
								{
									OFFSET 0.0 0.0 0.0
								}
							}
						}
					}
				}
			}
		}
		JOINT UpperLeg_L
		{
			OFFSET -2.19248 -6.46944 0.0
			CHANNELS 6 Xposition Yposition Zposition Zrotation Xrotation Yrotation 
			JOINT LowerLeg_L
			{
				OFFSET 39.0811 0.0 -1.23785e-05
				CHANNELS 6 Xposition Yposition Zposition Zrotation Xrotation Yrotation 
				JOINT Foot_L
				{
					OFFSET 40.9854 0.0 -1.26872e-05
					CHANNELS 6 Xposition Yposition Zposition Zrotation Xrotation Yrotation 
					JOINT Toes_L
					{
						OFFSET 11.7543 0.0 0.0
						CHANNELS 6 Xposition Yposition Zposition Zrotation Xrotation Yrotation 
						End Site
						{
							OFFSET 0.0 0.0 0.0
						}
					}
				}
			}
		}
		JOINT UpperLeg_R
		{
			OFFSET -2.19251 6.46944 0.0
			CHANNELS 6 Xposition Yposition Zposition Zrotation Xrotation Yrotation 
			JOINT LowerLeg_R
			{
				OFFSET -39.0811 -0.00228153 -0.0401928
				CHANNELS 6 Xposition Yposition Zposition Zrotation Xrotation Yrotation 
				JOINT Foot_R
				{
					OFFSET -40.9854 0.0 0.0
					CHANNELS 6 Xposition Yposition Zposition Zrotation Xrotation Yrotation 
					JOINT Toes_R
					{
						OFFSET -11.7543 0.0 0.0
						CHANNELS 6 Xposition Yposition Zposition Zrotation Xrotation Yrotation 
						End Site
						{
							OFFSET 0.0 0.0 0.0
						}
					}
				}
			}
		}
	}
}
MOTION
Frames:	7
Frame Time:	0.0333333
0.000000 0.000000 0.000000 0.000000 0.000000 -0.000000 1.933690 90.611800 0.601943 89.016900 -6.662390 12.741600 15.735700 0.000005 -0.000001 89.600000 80.753000 -92.457700 8.984550 -0.406207 -0.000000 10.728800 -0.202100 -5.693170 16.377300 -0.000001 -0.000001 30.052300 0.027301 2.937190 6.456720 -0.000001 -0.000000 12.029000 -0.558220 -17.262900 12.994200 -0.242716 4.980390 -91.293600 4.393260 -73.574600 5.348090 -0.000007 -0.000001 -61.210900 34.307400 -15.463700 24.328600 0.000019 0.000005 7.606950 21.302700 -20.184000 22.291600 -0.000001 0.000005 7.373660 5.244420 1.579730 12.994500 -0.242716 -4.980390 92.105700 -6.095030 -70.899700 -5.348130 -0.000001 -0.000004 -68.743500 -44.300400 -85.593700 -24.328900 0.000322 -0.000009 6.205550 1.770320 -74.143600 -22.291500 -0.000108 -0.000004 20.068800 5.371640 -2.037400 -2.192480 -6.469440 -0.000000 -174.181000 -15.941900 3.561210 39.081100 -0.000007 -0.000012 -0.138652 0.226249 31.501600 40.985400 -0.000006 -0.000013 1.732950 4.621000 -71.940800 11.754300 -0.000000 0.000003 -0.000233 -0.002105 -16.656600 -2.192510 6.469440 -0.000001 171.247000 20.194800 -176.377000 -39.081100 -0.002282 -0.040193 -0.184486 0.318187 30.548300 -40.985400 0.000008 0.000006 2.786110 16.764100 -70.410800 -11.754300 -0.000006 -0.000006 -0.002705 -0.037223 -18.086800
0.000000 0.000000 0.000000 0.000000 0.000000 -0.000000 1.952880 90.620100 0.544937 89.020400 -6.694400 12.783800 15.735700 0.000005 -0.000001 89.480100 80.613300 -92.380200 8.984550 -0.406207 -0.000000 11.006900 -0.251115 -5.773030 16.377300 -0.000001 -0.000001 30.363400 -0.021156 3.182800 6.456720 -0.000001 -0.000000 12.420400 -0.815480 -17.011300 12.994200 -0.242716 4.980390 -91.279100 4.337860 -73.554100 5.348090 -0.000007 -0.000001 -61.176900 34.226400 -15.357800 24.328600 0.000019 0.000005 7.568510 21.227800 -20.151200 22.291600 -0.000001 0.000005 7.317080 5.242620 1.627120 12.994500 -0.242716 -4.980390 92.100700 -6.077810 -70.891500 -5.348130 -0.000001 -0.000004 -69.095200 -44.050600 -85.817500 -24.328900 0.000322 -0.000009 6.216620 1.755370 -74.297600 -22.291500 -0.000108 -0.000004 20.003300 5.371830 -2.043460 -2.192480 -6.469440 -0.000000 -174.177000 -16.018500 3.580270 39.081100 -0.000007 -0.000012 -0.134821 0.220164 31.482200 40.985400 -0.000006 -0.000013 1.771340 4.670850 -71.898900 11.754300 -0.000000 0.000003 -0.000220 -0.002005 -16.653000 -2.192510 6.469440 -0.000001 171.226000 20.229600 -176.375000 -39.081100 -0.002282 -0.040193 -0.180136 0.310921 30.539800 -40.985400 0.000008 0.000006 2.842050 16.833500 -70.374700 -11.754300 -0.000006 -0.000006 -0.002577 -0.035719 -18.025600
0.000000 0.000000 0.000000 0.000000 0.000000 -0.000000 1.982430 90.626700 0.478811 89.011200 -6.750300 12.773000 15.735700 0.000005 -0.000001 89.380800 80.500900 -92.301200 8.984550 -0.406207 -0.000000 11.230300 -0.292044 -5.809550 16.377300 -0.000001 -0.000001 30.643000 -0.049710 3.390400 6.456720 -0.000001 -0.000000 12.653300 -0.996778 -16.935400 12.994200 -0.242716 4.980390 -91.274300 4.315940 -73.533900 5.348090 -0.000007 -0.000001 -61.042500 34.139700 -15.329100 24.328600 0.000019 0.000005 7.520290 21.147200 -20.098600 22.291600 -0.000001 0.000005 7.192600 5.241640 1.652510 12.994500 -0.242716 -4.980390 92.092500 -6.056540 -70.899100 -5.348130 -0.000001 -0.000004 -69.265100 -43.830000 -86.030400 -24.328900 0.000322 -0.000009 6.346000 1.780130 -74.398300 -22.291500 -0.000108 -0.000004 20.074300 5.371670 -2.038010 -2.192480 -6.469440 -0.000000 -174.167000 -16.129500 3.531270 39.081100 -0.000007 -0.000012 -0.132488 0.216322 31.486000 40.985400 -0.000006 -0.000013 1.807750 4.717000 -71.861900 11.754300 -0.000000 0.000003 -0.000210 -0.001930 -16.650200 -2.192510 6.469440 -0.000001 171.224000 20.278500 -176.432000 -39.081100 -0.002282 -0.040193 -0.182312 0.314839 30.521600 -40.985400 0.000008 0.000006 2.805960 16.923800 -70.294000 -11.754300 -0.000006 -0.000006 -0.002814 -0.038477 -18.137900
0.000000 0.000000 0.000000 0.000000 0.000000 -0.000000 2.007070 90.636900 0.408279 88.997600 -6.816340 12.699800 15.735700 0.000005 -0.000001 89.337100 80.420300 -92.262900 8.984550 -0.406207 -0.000000 11.390900 -0.312484 -5.818100 16.377300 -0.000001 -0.000001 30.773000 -0.039708 3.431060 6.456720 -0.000001 -0.000000 12.853800 -1.070380 -16.824400 12.994200 -0.242716 4.980390 -91.259600 4.264610 -73.528500 5.348090 -0.000007 -0.000001 -60.891700 34.055500 -15.388800 24.328600 0.000019 0.000005 7.474050 21.128400 -19.999200 22.291600 -0.000001 0.000005 7.194260 5.240900 1.671970 12.994500 -0.242716 -4.980390 92.094900 -6.081410 -70.951000 -5.348130 -0.000001 -0.000004 -69.430800 -43.688500 -86.186500 -24.328900 0.000322 -0.000009 6.465630 1.793640 -74.564800 -22.291500 -0.000108 -0.000004 20.067000 5.370120 -1.991200 -2.192480 -6.469440 -0.000000 -174.180000 -16.208100 3.417500 39.081100 -0.000007 -0.000012 -0.132437 0.216306 31.477900 40.985400 -0.000006 -0.000013 1.825760 4.710240 -71.813500 11.754300 -0.000000 0.000003 -0.000226 -0.002054 -16.654800 -2.192510 6.469440 -0.000001 171.251000 20.310000 -176.549000 -39.081100 -0.002282 -0.040193 -0.184754 0.319550 30.477000 -40.985400 0.000008 0.000006 2.735860 17.038900 -70.186700 -11.754300 -0.000006 -0.000006 -0.002625 -0.036283 -18.048600
0.000000 0.000000 0.000000 0.000000 0.000000 -0.000000 2.027750 90.650500 0.355701 88.977000 -6.897090 12.640900 15.735700 0.000005 -0.000001 89.322800 80.354800 -92.242600 8.984550 -0.406207 -0.000000 11.521500 -0.321843 -5.804940 16.377300 -0.000001 -0.000001 30.788900 -0.024317 3.409900 6.456720 -0.000001 -0.000000 13.005000 -1.072240 -16.782000 12.994200 -0.242716 4.980390 -91.250000 4.235460 -73.540800 5.348090 -0.000007 -0.000001 -60.716400 33.883000 -15.468300 24.328600 0.000019 0.000005 7.536710 21.438900 -19.898700 22.291600 -0.000001 0.000005 7.217630 5.241620 1.653170 12.994500 -0.242716 -4.980390 92.090000 -6.072850 -70.967900 -5.348130 -0.000001 -0.000004 -69.549200 -43.475300 -86.389600 -24.328900 0.000322 -0.000009 6.615500 1.831490 -74.597500 -22.291500 -0.000108 -0.000004 20.167200 5.370880 -2.014130 -2.192480 -6.469440 -0.000000 -174.168000 -16.314900 3.346460 39.081100 -0.000007 -0.000012 -0.130971 0.214172 31.447100 40.985400 -0.000006 -0.000013 1.851920 4.744830 -71.766500 11.754300 -0.000000 0.000003 -0.000204 -0.001885 -16.648600 -2.192510 6.469440 -0.000001 171.296000 20.340700 -176.643000 -39.081100 -0.002282 -0.040193 -0.181685 0.314980 30.425700 -40.985400 0.000008 0.000006 2.743340 17.129500 -70.105000 -11.754300 -0.000006 -0.000006 -0.002583 -0.035793 -18.028600
0.000000 0.000000 0.000000 0.000000 0.000000 -0.000000 2.054110 90.676600 0.308745 89.003400 -6.951240 12.533500 15.735700 0.000005 -0.000001 89.397000 80.336300 -92.320600 8.984550 -0.406207 -0.000000 11.559500 -0.298518 -5.814680 16.377300 -0.000001 -0.000001 30.766600 0.005233 3.350630 6.456720 -0.000001 -0.000000 13.087100 -1.025090 -16.721200 12.994200 -0.242716 4.980390 -91.230800 4.182670 -73.586200 5.348090 -0.000007 -0.000001 -60.523500 33.782300 -15.645600 24.328600 0.000019 0.000005 7.452230 21.410300 -19.713800 22.291600 -0.000001 0.000005 7.406720 5.238970 1.722460 12.994500 -0.242716 -4.980390 92.082800 -6.057710 -70.984700 -5.348130 -0.000001 -0.000004 -69.546500 -43.332200 -86.424300 -24.328900 0.000322 -0.000009 6.589700 1.820160 -74.630700 -22.291500 -0.000108 -0.000004 20.074400 5.369380 -1.967580 -2.192480 -6.469440 -0.000000 -174.207000 -16.463600 3.268450 39.081100 -0.000007 -0.000012 -0.132293 0.217375 31.324700 40.985400 -0.000006 -0.000013 1.880710 4.803440 -71.674100 11.754300 -0.000000 0.000003 -0.000217 -0.001981 -16.652100 -2.192510 6.469440 -0.000001 171.294000 20.396600 -176.751000 -39.081100 -0.002282 -0.040193 -0.179209 0.312003 30.326300 -40.985400 0.000008 0.000006 2.754380 17.255700 -70.016600 -11.754300 -0.000006 -0.000006 -0.002734 -0.037552 -18.100200
0.000000 0.000000 0.000000 0.000000 0.000000 -0.000000 2.066030 90.683200 0.275572 88.974600 -6.972070 12.426400 15.735700 0.000005 -0.000001 89.352500 80.345100 -92.253800 8.984550 -0.406207 -0.000000 11.541400 -0.312017 -5.768870 16.377300 -0.000001 -0.000001 30.664900 0.030956 3.242670 6.456720 -0.000001 -0.000000 13.143200 -0.925497 -16.713600 12.994200 -0.242716 4.980390 -91.215600 4.132410 -73.592700 5.348090 -0.000007 -0.000001 -60.359900 33.629900 -15.826200 24.328600 0.000019 0.000005 7.447640 21.564700 -19.578300 22.291600 -0.000001 0.000005 7.554550 5.238490 1.734860 12.994500 -0.242716 -4.980390 92.077700 -6.056410 -71.024000 -5.348130 -0.000001 -0.000004 -69.407700 -43.173000 -86.384900 -24.328900 0.000322 -0.000009 6.663440 1.847850 -74.574000 -22.291500 -0.000108 -0.000004 20.139500 5.367600 -1.912860 -2.192480 -6.469440 -0.000000 -174.214000 -16.521500 3.134290 39.081100 -0.000007 -0.000012 -0.128354 0.210860 31.329800 40.985400 -0.000006 -0.000013 1.903620 4.830570 -71.654300 11.754300 -0.000000 0.000003 -0.000216 -0.001978 -16.652000 -2.192510 6.469440 -0.000001 171.312000 20.538700 -176.854000 -39.081100 -0.002282 -0.040193 -0.182522 0.318232 30.281900 -40.985400 0.000008 0.000006 2.727970 17.389100 -69.951300 -11.754300 -0.000006 -0.000006 -0.002716 -0.037343 -18.091700
